<?xml version="1.0" standalone="no"?>
<!DOCTYPE svg PUBLIC "-//W3C//DTD SVG 20010904//EN"
 "http://www.w3.org/TR/2001/REC-SVG-20010904/DTD/svg10.dtd">
<svg version="1.0" xmlns="http://www.w3.org/2000/svg"
 width="1084.000000pt" height="1084.000000pt" viewBox="0 0 1084.000000 1084.000000"
 preserveAspectRatio="xMidYMid meet">
<metadata>
Created by potrace 1.11, written by Peter Selinger 2001-2013
</metadata>
<g transform="translate(0.000000,1084.000000) scale(0.100000,-0.100000)"
fill="#000000" stroke="none">
<path d="M4082 9864 c-33 -7 -71 -18 -84 -25 -32 -17 -98 -69 -125 -99 -29
-32 -70 -117 -78 -161 -7 -35 -10 -3638 -4 -3643 2 -2 58 28 124 67 129 75
136 79 358 207 82 47 156 90 165 95 9 6 64 37 122 70 57 33 112 65 122 70 30
17 397 229 563 325 88 51 174 101 190 111 17 10 36 22 44 25 7 4 52 30 100 57
47 27 100 58 118 68 17 10 50 29 72 43 22 15 43 26 45 26 2 0 71 39 153 86 81
48 168 98 193 112 25 14 57 33 72 43 14 11 28 19 31 19 3 0 78 43 167 95 89
52 163 95 165 95 2 0 32 17 66 38 35 22 84 50 109 64 130 73 173 103 212 148
83 97 108 225 67 352 -20 64 -32 82 -91 141 -37 37 -72 67 -76 67 -5 0 -115
61 -243 136 -129 75 -259 150 -289 167 -30 17 -134 76 -230 132 -156 91 -530
307 -613 354 -61 35 -494 285 -642 371 -461 267 -557 321 -581 330 -54 21
-140 27 -202 14z"/>
<path d="M5745 6048 c-38 -22 -169 -97 -290 -166 -121 -68 -236 -134 -255
-145 -19 -11 -55 -31 -80 -45 -25 -14 -124 -70 -220 -125 -96 -55 -191 -109
-210 -120 -19 -10 -186 -105 -370 -210 -540 -307 -612 -348 -670 -380 -30 -16
-67 -38 -82 -48 -14 -11 -28 -19 -31 -19 -2 0 -55 -29 -117 -65 -62 -36 -114
-65 -115 -65 -2 0 -36 -19 -77 -43 -40 -24 -80 -46 -88 -50 -8 -4 -33 -18 -55
-32 -22 -14 -55 -32 -72 -41 -18 -9 -34 -19 -34 -23 -7 -32 -3 -3148 4 -3185
42 -243 323 -382 546 -272 45 22 681 388 969 557 45 27 85 49 88 49 2 0 23 12
47 27 23 14 202 119 397 231 195 113 369 213 385 223 17 10 53 30 80 44 28 15
57 33 66 41 8 8 18 14 22 14 6 0 356 201 525 301 45 27 84 49 86 49 2 0 33 17
67 38 35 22 84 50 109 64 46 26 283 163 338 195 39 23 240 139 307 177 27 15
77 44 110 63 33 20 80 47 105 61 25 14 124 71 220 127 245 142 623 361 680
392 14 8 45 26 70 41 25 15 108 63 184 106 169 97 225 146 268 234 27 55 34
80 37 149 5 124 -31 216 -116 296 -30 29 -352 227 -368 227 -2 0 -32 17 -66
38 -35 22 -84 50 -109 64 -25 14 -115 66 -200 115 -181 105 -460 267 -508 294
-113 65 -192 110 -397 229 -126 73 -245 141 -262 152 -65 36 -104 59 -463 267
-200 116 -369 211 -375 210 -5 0 -41 -18 -80 -41z"/>
</g>
</svg>
