<?xml version="1.0" standalone="no"?>
<!DOCTYPE svg PUBLIC "-//W3C//DTD SVG 20010904//EN"
 "http://www.w3.org/TR/2001/REC-SVG-20010904/DTD/svg10.dtd">
<svg version="1.0" xmlns="http://www.w3.org/2000/svg"
 width="1084.000000pt" height="1084.000000pt" viewBox="0 0 1084.000000 1084.000000"
 preserveAspectRatio="xMidYMid meet">
<metadata>
Created by potrace 1.11, written by Peter Selinger 2001-2013
</metadata>
<g transform="translate(0.000000,1084.000000) scale(0.100000,-0.100000)"
fill="#000000" stroke="none">
<path d="M3780 10703 c-43 -6 -143 -45 -175 -66 -95 -64 -176 -188 -190 -288
-8 -58 -10 -4307 -2 -4315 3 -3 46 19 97 48 50 29 108 62 128 74 20 11 125 71
232 134 107 62 211 122 230 133 19 10 64 36 100 57 36 21 81 47 100 58 19 11
76 43 125 72 50 29 105 61 123 71 75 43 288 166 492 284 74 43 295 170 490
283 472 272 609 352 645 373 17 10 41 24 55 32 14 7 144 82 290 167 146 84
279 161 297 171 17 10 50 29 72 43 22 15 43 26 45 26 3 0 48 26 102 57 143 84
204 151 244 272 55 165 7 343 -125 459 -36 32 -318 202 -450 271 -16 9 -31 19
-33 24 -2 4 -7 7 -12 7 -4 0 -69 36 -145 80 -76 44 -139 80 -140 80 -2 0 -40
23 -85 50 -45 28 -83 50 -85 50 -2 0 -76 43 -166 95 -89 52 -163 95 -164 95
-1 0 -91 52 -200 115 -108 63 -199 115 -201 115 -3 0 -21 11 -42 24 -46 29
-926 537 -1002 579 -30 16 -59 33 -65 37 -5 4 -55 34 -110 65 -96 55 -122 71
-199 114 -73 42 -199 66 -276 54z"/>
<path d="M5815 6210 c-4 -6 -11 -8 -16 -5 -5 4 -9 1 -9 -4 0 -6 -4 -11 -9 -11
-6 0 -60 -29 -122 -65 -61 -36 -113 -65 -114 -65 -2 0 -38 -20 -79 -45 -42
-25 -79 -45 -82 -45 -3 0 -18 -8 -32 -19 -15 -10 -54 -33 -87 -51 -33 -18 -76
-42 -95 -53 -19 -11 -55 -31 -80 -45 -25 -14 -121 -69 -215 -122 -93 -54 -318
-182 -500 -285 -181 -103 -345 -196 -363 -206 -18 -11 -119 -68 -225 -128
-106 -60 -235 -133 -287 -163 -52 -30 -120 -69 -151 -86 -31 -17 -200 -113
-375 -213 -176 -100 -367 -209 -427 -242 l-107 -61 0 -1872 c0 -1350 3 -1888
11 -1926 25 -115 109 -231 212 -292 163 -95 342 -85 522 29 22 13 47 28 55 32
8 4 65 36 125 71 61 36 130 76 155 90 107 60 307 176 332 193 15 11 29 19 32
19 5 0 339 192 366 210 8 6 21 13 29 17 8 3 64 35 125 71 61 36 127 74 146 85
19 10 76 43 125 72 50 29 110 64 135 78 25 13 230 132 455 262 226 131 426
247 445 258 19 10 123 70 230 132 107 62 211 122 230 132 19 11 70 41 113 67
43 25 80 46 82 46 2 0 60 34 130 75 69 41 128 75 131 75 2 0 32 17 66 38 35
21 83 50 108 64 25 14 186 107 358 206 172 100 315 182 318 182 2 0 27 15 56
33 29 19 78 47 108 64 30 16 93 52 140 80 78 46 508 294 590 341 19 11 134 77
255 147 121 70 264 153 318 184 203 116 289 253 282 448 -4 128 -58 244 -152
326 -31 28 -187 127 -198 127 -2 0 -45 25 -95 55 -50 30 -92 55 -94 55 -2 0
-92 52 -201 115 -108 63 -198 115 -200 115 -1 0 -65 37 -141 81 -125 74 -190
111 -249 143 -11 6 -27 16 -35 22 -8 7 -37 24 -65 39 -27 14 -66 36 -85 47
-19 11 -78 45 -130 75 -52 29 -102 58 -110 63 -8 5 -60 35 -115 66 -55 31
-107 63 -115 70 -8 7 -18 13 -23 13 -4 0 -17 7 -30 15 -18 11 -211 123 -322
186 -16 10 -133 77 -260 151 -126 73 -245 140 -263 150 -18 9 -38 22 -45 27
-7 5 -39 24 -72 42 -33 17 -85 47 -115 65 -98 59 -282 165 -285 165 -2 0 -7
-5 -10 -10z"/>
</g>
</svg>
